<?xml version="1.0" encoding="utf-8"?>
<!-- Generator: Adobe Illustrator 18.0.0, SVG Export Plug-In . SVG Version: 6.00 Build 0)  -->
<!DOCTYPE svg PUBLIC "-//W3C//DTD SVG 1.1//EN" "http://www.w3.org/Graphics/SVG/1.1/DTD/svg11.dtd">
<svg version="1.1" id="Layer_1" xmlns="http://www.w3.org/2000/svg" xmlns:xlink="http://www.w3.org/1999/xlink" x="0px" y="0px"
	 viewBox="0 0 612 524.2" enable-background="new 0 0 612 524.2" xml:space="preserve">
<path fill="#011434" d="M438.8,264.7c-3.6,0.1-7.1-0.2-10.5-1.7c-6.5-2.9-9.9-8.1-11-14.7c-1-5.6-0.4-11.2,2.3-16.4
	c3.5-6.8,9.2-10.4,16.7-11c5-0.4,9.9-0.1,14.5,2.2c6.8,3.4,10.1,9.2,10.9,16.5c0.5,5.2,0,10.3-2.6,15c-3.4,6.2-8.9,9.2-15.7,10
	C441.9,264.8,440.3,264.7,438.8,264.7z M449.4,243.4c-0.1-1.9,0-3.8-0.5-5.7c-1.3-4.9-4.7-7.9-9-8c-5.1-0.1-8.1,2.1-9.7,7.4
	c-1.2,4.2-1.1,8.4,0.2,12.5c1.4,4.2,4.9,6.5,9.4,6.5c4.1,0,7.1-2.4,8.6-6.5C449.3,247.6,449.4,245.5,449.4,243.4z"/>
<path fill="#011434" d="M478.1,226.8c1.3-0.5,2-1.2,2.6-2c3.6-4.7,15.4-5.3,20.2-1.2c2.6,2.2,3.8,5.3,4.2,8.6
	c0.9,6.7,0.2,13.5,0.4,20.3c0.1,3.2,0,6.3,0,9.5c0,1.3-0.2,2-1.7,1.9c-2.9-0.1-5.7-0.1-8.6,0c-1.1,0-1.5-0.1-1.8-1.4
	c-0.8-3.9,0.1-7.7,0.1-11.5c-0.1-4.9-0.2-9.8-0.3-14.7c-0.1-2.9-2.7-5.3-6-5.6c-5.1-0.5-8.9,3.4-8.7,7.9c0.3,7.8,0.1,15.6,0.1,23.4
	c0,1.4-0.3,1.9-1.8,1.9c-2.9-0.1-5.7-0.1-8.6,0c-1.2,0-1.7-0.2-1.6-1.5c0.1-13,0-25.9,0-38.9c0-1.3,0.4-1.6,1.6-1.6
	c2.8,0.1,5.6,0.1,8.4,0c1.2,0,1.6,0.3,1.5,1.5C478,224.4,478.1,225.5,478.1,226.8z"/>
<path fill="#011434" d="M273.5,227c5.6-6.5,11.7-7.4,18.7-5.5c4.9,1.3,7.3,5.4,7.8,10.3c1.1,10.2,0.2,20.4,0.5,30.6
	c0,1.1-0.4,1.3-1.4,1.3c-2.9,0-5.9-0.1-8.8,0c-1.5,0.1-1.8-0.4-1.8-1.8c0.1-7.4,0.1-14.9,0-22.3c0-1.5-0.1-3.1-0.4-4.5
	c-0.6-2.5-2.2-3.7-4.8-4.3c-4-1-9.5,2.2-9.4,7.1c0.3,8,0,16,0.1,24.1c0,1.4-0.3,1.9-1.8,1.9c-2.9-0.1-5.7-0.1-8.6,0
	c-1.4,0.1-1.7-0.4-1.7-1.7c0.1-6.8,0.2-13.7-0.1-20.5c-0.2-3.5,0-7-0.2-10.5c-0.1-1.7,0.4-3.6,0.3-5.4c0-0.7,0.1-1.4-0.2-2.2
	c-0.5-1.1-0.1-1.7,1.1-1.7c3.2,0,6.3,0.1,9.5,0c0.8,0,1.2,0.3,1.2,1.2C273.5,224.2,273.5,225.3,273.5,227z"/>
<path fill="#011434" d="M383.3,237.8c0,0.9,0,1.8,0,2.8c0,0.4,0,0.8,0,1.2c0,0.9,0,1.9,0,2.8c0,0.7,0,1.4,0,2.1c0,1.5,0,3.1,0,4.6
	c0,1.1,0,2.3,0,3.4c0,1.1,0,2.1,0,3.2c-0.2,0.8-0.2,1.7,0,2.5c0.2,3.4,0.2,3.4-3.2,3.4c-2.6,0-5.3,0-8,0c0.6-1.6,0.2-3-0.5-4.7
	c-2.2,2.3-4.3,4.5-7.3,5.1c-5.4,1-10.9,1.3-15.5-2.3c-2.6-2.1-4-5.2-4.2-8.6c-0.5-10.1-0.2-20.2-0.4-30.2c0-1.1,0.4-1.1,1.3-1.1
	c2.9,0,5.9,0.1,8.8,0c1.5-0.1,1.8,0.4,1.8,1.8c-0.1,7.4,0,14.9,0,22.3c0,1.2,0.1,2.3,0.2,3.5c0.4,5.5,6.1,6.7,9.9,5.2
	c4.1-1.6,5.4-4.1,5.1-8.4c0-0.6,0-1.1,0-1.7c0-1.1,0-2.1,0-3.1c0-0.3,0-0.6,0-0.9c0-0.6,0-1.2,0-1.8c0-0.4,0-0.9,0-1.3
	c0-4.6,0-9.3-0.2-13.9c0-1.3,0.1-1.8,1.6-1.8c2.9,0.1,5.9,0.1,8.8,0c1.3,0,1.7,0.3,1.6,1.6c-0.1,3.4,0,6.8,0,10.1c0,0.5,0,1.1,0,1.6
	c0,0.5,0,1,0,1.5C383.3,237,383.3,237.4,383.3,237.8z"/>
<path fill="#011434" d="M319.9,264.8c-4.2,0.1-9.2-0.8-13.9-2.8c-1-0.4-1.4-1.2-1.1-2.2c0.6-2.4,1.2-4.7,1.3-7.2
	c0.1-1.5,1.3-0.6,1.8-0.2c3,1.9,6.4,3.1,9.9,3.6c2.8,0.4,5.6,0.6,8.3-0.9c1.4-0.8,1.6-1.8,1.7-3.2c0.1-1.4-0.6-2.2-1.8-2.7
	c-3.8-1.7-8-2.5-11.9-4c-4-1.4-7.7-3.4-8.8-8c-1-4.2-0.1-8,2.7-11.4c3-3.5,7-4.5,11.1-4.9c5.7-0.6,11.3-0.1,16.8,2
	c1.2,0.5,1.9,0.8,1.3,2.5c-0.6,1.7-0.7,3.7-1.1,5.5c-0.2,1.3-0.7,1.6-2.1,0.9c-4.5-2.4-9.5-2.5-14.4-2c-1.3,0.1-2.7,1.2-2.9,2.9
	c-0.2,1.8,1.1,2.5,2.3,3.1c3.1,1.4,6.4,2.1,9.6,3.2c3.4,1.1,6.6,2.4,8.9,5.5c3.2,4.5,2.3,14.5-4.3,17.6
	C329.5,264,326.5,264.8,319.9,264.8z"/>
<path fill="#011434" d="M525.3,264.7c-4.9,0.2-10-0.6-14.7-3.1c-0.7-0.4-1-0.6-0.7-1.5c0.6-2.5,1.2-5,1.4-7.6c0.1-1.3,1-0.5,1.4-0.2
	c3.1,2,6.5,3.2,10.1,3.8c2.6,0.4,5.3,0.4,7.9-0.8c1.6-0.7,2.1-2.1,2.1-3.4c0-1.3-0.8-2.6-2.3-3c-3.5-1-6.9-2-10.3-3.2
	c-3.3-1.2-6.6-2.4-8.7-5.7c-3.4-5.4-0.6-13.7,4.9-16.5c5.6-2.8,11.3-2.8,17.2-2.2c2.6,0.3,5.1,1.1,7.5,1.9c1.1,0.4,1.7,0.9,1.2,2.2
	c-0.6,2-1,4.1-1.4,6.1c-0.2,1-0.6,1.2-1.5,0.7c-3.5-1.8-7.3-2.4-11.1-2.7c-1.8-0.1-3.8,0.3-5.4,1.4c-1.4,0.9-1.5,2.8-0.3,4
	c2.2,2.2,5.2,2.4,7.9,3.3c3.8,1.3,7.7,2.4,10.9,5.1c3.9,3.3,3.9,12.3,0.2,16.2C537.1,263.9,531.6,264.9,525.3,264.7z"/>
<path fill="#011434" d="M254.2,233c0,9.7,0,19.4,0,29.1c0,1.3-0.2,1.8-1.7,1.7c-3.2-0.1-6.3-0.1-9.5,0c-1.3,0-1.7-0.3-1.7-1.7
	c0.1-10.6,0.1-21.3,0.1-31.9c0-8.7,0.1-17.5,0-26.2c0-1.5,0.5-1.7,1.8-1.6c3.1,0.1,6.2,0.1,9.3,0c1.5-0.1,1.8,0.5,1.8,1.8
	C254.1,213.7,254.2,223.3,254.2,233C254.2,233,254.2,233,254.2,233z"/>
<path fill="#011434" d="M402.2,229.9c1.7-5.4,7.7-9.4,13.3-9.1c0.8,0.1,1.2,0.2,1.2,1.1c0,2.9,0,5.9,0,8.8c0,1-0.4,1.1-1.3,1.2
	c-3.2,0.5-6.4,1-9,3.2c-3.4,2.9-4.2,6.7-4.2,10.8c-0.1,5.4-0.1,10.9,0,16.3c0,1.2-0.3,1.5-1.4,1.5c-3-0.1-6-0.1-9.1,0
	c-1.2,0-1.4-0.4-1.4-1.5c0.1-12.5,0-25,0-37.5c0-0.6,0.1-1.2-0.1-1.7c-0.4-1.2,0.2-1.2,1-1.2c2.9,0,5.9,0.1,8.8,0
	c1.2,0,1.5,0.4,1.5,1.5c-0.1,2.2,0,4.3,0,6.5C401.9,229.9,402.1,229.9,402.2,229.9z"/>
<path fill="#011434" d="M383.3,254.6c0-1.1,0-2.3,0-3.4C383.5,252.4,383.5,253.5,383.3,254.6z"/>
<path fill="#011434" d="M383.3,260.4c-0.2-0.8-0.2-1.7,0-2.5C383.5,258.7,383.6,259.5,383.3,260.4z"/>
<path fill="#011434" d="M383.3,246.7c0-0.7,0-1.4,0-2.1C383.5,245.3,383.5,246,383.3,246.7z"/>
<path fill="#011434" d="M383.3,235.2c0-0.5,0-1.1,0-1.6C383.5,234.1,383.5,234.6,383.3,235.2z"/>
<path fill="#011434" d="M371.5,244.6c0,0.6,0,1.1,0,1.7C371.3,245.7,371.3,245.1,371.5,244.6z"/>
<path fill="#011434" d="M371.4,237.5c0,0.4,0,0.9,0,1.3C371.2,238.3,371.2,237.9,371.4,237.5z"/>
<path fill="#011434" d="M383.3,241.8c0-0.4,0-0.8,0-1.2C383.5,241,383.5,241.4,383.3,241.8z"/>
<path fill="#011434" d="M383.3,237.8c0-0.4,0-0.8,0-1.2C383.5,237,383.5,237.4,383.3,237.8z"/>
<path fill="#011434" d="M371.4,240.6c0,0.3,0,0.6,0,0.9C371.2,241.1,371.2,240.8,371.4,240.6z"/>
<path fill="#011434" d="M219.9,205.3c-0.5,2.1-0.8,3.6-1.2,5.1c-4.2,16.6-13.7,29.2-29,37.1c-2,1-2.7,1.8-2.5,4.2
	c0.5,6.7-3,11.4-8.8,14.5c-0.3,0.1-0.6,0.3-0.9,0.4c0,0,0,0,0,0c-0.6,0.1-1.3,0.2-1.9,0.3c-10.5,2.4-20-7.3-17.4-16.7
	c0.2-0.9,0-1.5-0.9-1.9c-4-1.9-7.9-3.7-11.8-5.7c-1.5-0.8-2.5-0.7-3.8,0.6c-4.2,4.1-9.2,5.8-14.9,3.8c-5.5-1.9-9-5.7-10.3-11.6
	c-0.6-2.5,0-5,0.3-7.4l-0.1,0c0.5-0.1,0.3-0.6,0.4-0.9c0.9-1.3,1.7-2.7,2.8-3.9c5.6-6,13.8-6.4,21.2-0.9c1.1,0.8,1.9,0.9,2.9,0.4
	c6.2-3.4,12.5-6.7,18.7-10.1l0.1,0l0.1-0.1c0.2-0.1,0.4-0.3,0.6-0.4c0,0,0.1,0,0.1,0l0.1-0.1c0.2-0.1,0.5-0.3,0.7-0.4
	c0,0,0.1,0.1,0.1,0.1l0.1-0.1c0.2-0.1,0.5-0.3,0.7-0.4c1.7-0.2,2-1.4,2-2.8c-0.1-2,0.3-3.9,1.1-5.7c2.1-5.1,8.1-9.5,14.1-9.1
	c6.3,0.4,12,4.2,14,10c2.1,6,0.4,11-3.9,15.4c-0.1,0.2-0.3,0.4-0.4,0.6c-0.4-0.1-0.7,0.1-0.9,0.4c-0.2,0-0.4,0.2-0.4,0.4
	c-0.7,0.1-1.2,0.4-1.7,0.9c0,0,0,0,0,0c-2.3,0.9-4.8,1.4-7.2,1.7c-0.9,0.1-1.3,0.5-1.6,1.2c-1.5,4.6-3,9.3-4.6,13.9
	c-0.3,0.9-0.4,1.5,0.6,1.7c3,0.7,5.4,2.5,7.9,4.2c0.7,0.5,1.3,0.6,2,0.2c6.1-3.4,12.1-6.9,16.7-12.3c0,0,0,0,0,0
	c0.1-0.2,0.3-0.3,0.4-0.5c0,0,0,0,0,0c0.1-0.1,0.3-0.3,0.4-0.4c0,0,0,0,0,0c0.4-0.1,0.4-0.5,0.5-0.9c2.8-2.9,5.2-6.1,7.2-9.6
	c4.3-7.4,6.7-15.3,8.1-23.6c0.2-1,0.5-2.1-1.1-2.7c-11.8-3.6-23.7-7.1-35.6-10.1c-3.7-0.9-7.7-1.4-11.3-2.6
	c-6.3-2-12.2-1.8-18.2,0.4c-0.4,0-0.8,0-1.1,0c-8.5,2.2-17,4.5-25.4,6.7c-0.1,0.1-0.3,0.2-0.4,0.3c0,0,0,0,0,0
	c-0.6,0.2-1.3-0.1-1.8,0.4c-0.4,0.2-1-0.1-1.3,0.5c-0.2,0-0.3,0.1-0.5,0.1c-1.5,0.4-2.9,0.8-4.4,1.2c0,0,0,0,0,0
	c-1.5,0.3-3,0.6-4.4,1.3c0,0,0,0,0,0c-1.1,0.1-2.2,0.3-3.1,0.9c-0.3,0.2-0.6,0.3-0.9,0.5c-0.9-0.1-1.6,0.2-2.2,0.8
	c-0.5,0.2-0.5,0.6-0.4,1c-1.3,4.6,0.2,9.2,0.1,13.7c-0.1,2.7,0.3,5.6,0.7,8.4c0.6,4.4,0.9,8.9,2.1,13.1c0.5,4.5,1.5,8.8,3.5,12.9
	c1,4.2,2.7,8,5.2,11.6c0,0,0.1,0,0.1,0c0.2,0.5,0.4,1.1,0.6,1.6c2.8,4.5,5.8,8.9,9.7,12.5c0.1,0.1,0.2,0.2,0.3,0.3
	c0.3,0.3,0.7,0.7,1,1c2.8,3.4,6.4,6,9.9,8.6c5.5,4,11.7,7,18,9.6c2.2,0.9,4.5,2.6,6.9,1.9c5.5-1.6,10.7-4.2,15.6-7.3l0,0
	c0.3-0.1,0.7,0,0.9-0.5c0,0,0,0,0,0c0.1,0,0.2-0.1,0.4-0.1c1-0.6,2.1-1.2,3.1-1.9c7.2-4.9,13.3-10.8,18.7-17.7
	c8.3-10.8,12.4-22.9,14.5-36.1c0.6-3.9,0.8-7.9,1.1-11.8C220.2,212.4,219.9,209.2,219.9,205.3z M203.7,231.1L203.7,231.1
	c-0.1,0-0.2,0.1-0.3,0.1C203.5,231.1,203.6,231.1,203.7,231.1z M111,231.5c0-0.2,0-0.4-0.1-0.5c-1.6-8.3-2.4-16.7-2.8-25.1
	c0.4,8.4,1.2,16.8,2.8,25.1C111,231.2,111,231.3,111,231.5c0.5,0.2,0.9-0.4,1.4-0.7c0.1,0,0.2-0.1,0.2-0.1c-0.1,0-0.2,0-0.2,0.1
	C112,231.1,111.5,231.7,111,231.5c0.6,2.9,1.2,5.8,2,8.6C112.2,237.3,111.6,234.4,111,231.5z"/>
<path fill="#BC9C22" d="M172.7,263.5c6.5-0.3,10.4-4,10.6-10.4c0.2-5.7-4.7-10-10.8-10.1c-5.7,0-10.5,4.5-10.6,10.1
	C161.8,258.9,166.6,263.7,172.7,263.5z"/>
<path fill="#BC9C22" d="M141.8,235.4c5.5,2.6,11.1,5.2,16.6,7.9c1.3,0.6,2.4,0.7,3.7,0c2.4-1.4,4.9-2.7,7.3-4c1-0.6,1.8-1.3,1.8-2.5
	c0.6-0.3,0.3-0.9,0.5-1.3c0,0,0,0,0,0c1-2.1,1.7-4.3,2.2-6.6c0.5-0.3,0.4-0.9,0.4-1.3c0.5-0.3,0.4-0.9,0.4-1.3
	c0.6-0.4,0.3-1.2,0.6-1.7c0,0,0,0,0,0c0.6-0.8,0.7-1.8,0.8-2.7c1-1.3,0.9-3,1.7-4.4c4.5,1.7,8.8,1.8,12.5-1.8c1.2-0.7,1.6-1.9,2.1-3
	c2.8-6.1-0.8-13.7-7.5-14.8c-5.1-1.5-10.8,1.7-12.4,6.9c-0.9,3.1-0.4,5.9,0.9,8.7c-2.7,1.3-5.4,2.6-8,3.9c-5,2.4-10,4.7-14.8,7.4
	c-0.4,0.1-0.8,0.1-1,0.5c-2.7,1.1-5.3,2.4-7.7,4c-1.5-2.1-3-4.3-5.5-5.5c-5.5-2.8-12.4-0.5-14.7,4.9c-2.5,6.1,0.3,12.5,6.5,14.5
	C134,245.1,139.2,242.2,141.8,235.4c0.2-1.7,0.1-3.3-0.3-5C141.8,232.1,141.9,233.8,141.8,235.4z"/>
</svg>
