<?xml version="1.0" encoding="utf-8"?>
<svg version="1.1" xmlns="http://www.w3.org/2000/svg" viewBox="90 175 150 150">
<path fill="#011434" d="M219.9,205.3c-0.5,2.1-0.8,3.6-1.2,5.1c-4.2,16.6-13.7,29.2-29,37.1c-2,1-2.7,1.8-2.5,4.2
	c0.5,6.7-3,11.4-8.8,14.5c-0.3,0.1-0.6,0.3-0.9,0.4c0,0,0,0,0,0c-0.6,0.1-1.3,0.2-1.9,0.3c-10.5,2.4-20-7.3-17.4-16.7
	c0.2-0.9,0-1.5-0.9-1.9c-4-1.9-7.9-3.7-11.8-5.7c-1.5-0.8-2.5-0.7-3.8,0.6c-4.2,4.1-9.2,5.8-14.9,3.8c-5.5-1.9-9-5.7-10.3-11.6
	c-0.6-2.5,0-5,0.3-7.4l-0.1,0c0.5-0.1,0.3-0.6,0.4-0.9c0.9-1.3,1.7-2.7,2.8-3.9c5.6-6,13.8-6.4,21.2-0.9c1.1,0.8,1.9,0.9,2.9,0.4
	c6.2-3.4,12.5-6.7,18.7-10.1l0.1,0l0.1-0.1c0.2-0.1,0.4-0.3,0.6-0.4c0,0,0.1,0,0.1,0l0.1-0.1c0.2-0.1,0.5-0.3,0.7-0.4
	c0,0,0.1,0.1,0.1,0.1l0.1-0.1c0.2-0.1,0.5-0.3,0.7-0.4c1.7-0.2,2-1.4,2-2.8c-0.1-2,0.3-3.9,1.1-5.7c2.1-5.1,8.1-9.5,14.1-9.1
	c6.3,0.4,12,4.2,14,10c2.1,6,0.4,11-3.9,15.4c-0.1,0.2-0.3,0.4-0.4,0.6c-0.4-0.1-0.7,0.1-0.9,0.4c-0.2,0-0.4,0.2-0.4,0.4
	c-0.7,0.1-1.2,0.4-1.7,0.9c0,0,0,0,0,0c-2.3,0.9-4.8,1.4-7.2,1.7c-0.9,0.1-1.3,0.5-1.6,1.2c-1.5,4.6-3,9.3-4.6,13.9
	c-0.3,0.9-0.4,1.5,0.6,1.7c3,0.7,5.4,2.5,7.9,4.2c0.7,0.5,1.3,0.6,2,0.2c6.1-3.4,12.1-6.9,16.7-12.3c0,0,0,0,0,0
	c0.1-0.2,0.3-0.3,0.4-0.5c0,0,0,0,0,0c0.1-0.1,0.3-0.3,0.4-0.4c0,0,0,0,0,0c0.4-0.1,0.4-0.5,0.5-0.9c2.8-2.9,5.2-6.1,7.2-9.6
	c4.3-7.4,6.7-15.3,8.1-23.6c0.2-1,0.5-2.1-1.1-2.7c-11.8-3.6-23.7-7.1-35.6-10.1c-3.7-0.9-7.7-1.4-11.3-2.6
	c-6.3-2-12.2-1.8-18.2,0.4c-0.4,0-0.8,0-1.1,0c-8.5,2.2-17,4.5-25.4,6.7c-0.1,0.1-0.3,0.2-0.4,0.3c0,0,0,0,0,0
	c-0.6,0.2-1.3-0.1-1.8,0.4c-0.4,0.2-1-0.1-1.3,0.5c-0.2,0-0.3,0.1-0.5,0.1c-1.5,0.4-2.9,0.8-4.4,1.2c0,0,0,0,0,0
	c-1.5,0.3-3,0.6-4.4,1.3c0,0,0,0,0,0c-1.1,0.1-2.2,0.3-3.1,0.9c-0.3,0.2-0.6,0.3-0.9,0.5c-0.9-0.1-1.6,0.2-2.2,0.8
	c-0.5,0.2-0.5,0.6-0.4,1c-1.3,4.6,0.2,9.2,0.1,13.7c-0.1,2.7,0.3,5.6,0.7,8.4c0.6,4.4,0.9,8.9,2.1,13.1c0.5,4.5,1.5,8.8,3.5,12.9
	c1,4.2,2.7,8,5.2,11.6c0,0,0.1,0,0.1,0c0.2,0.5,0.4,1.1,0.6,1.6c2.8,4.5,5.8,8.9,9.7,12.5c0.1,0.1,0.2,0.2,0.3,0.3
	c0.3,0.3,0.7,0.7,1,1c2.8,3.4,6.4,6,9.9,8.6c5.5,4,11.7,7,18,9.6c2.2,0.9,4.5,2.6,6.9,1.9c5.5-1.6,10.7-4.2,15.6-7.3l0,0
	c0.3-0.1,0.7,0,0.9-0.5c0,0,0,0,0,0c0.1,0,0.2-0.1,0.4-0.1c1-0.6,2.1-1.2,3.1-1.9c7.2-4.9,13.3-10.8,18.7-17.7
	c8.3-10.8,12.4-22.9,14.5-36.1c0.6-3.9,0.8-7.9,1.1-11.8C220.2,212.4,219.9,209.2,219.9,205.3z M203.7,231.1L203.7,231.1
	c-0.1,0-0.2,0.1-0.3,0.1C203.5,231.1,203.6,231.1,203.7,231.1z M111,231.5c0-0.2,0-0.4-0.1-0.5c-1.6-8.3-2.4-16.7-2.8-25.1
	c0.4,8.4,1.2,16.8,2.8,25.1C111,231.2,111,231.3,111,231.5c0.5,0.2,0.9-0.4,1.4-0.7c0.1,0,0.2-0.1,0.2-0.1c-0.1,0-0.2,0-0.2,0.1
	C112,231.1,111.5,231.7,111,231.5c0.6,2.9,1.2,5.8,2,8.6C112.2,237.3,111.6,234.4,111,231.5z"/>
<path fill="#BC9C22" d="M172.7,263.5c6.5-0.3,10.4-4,10.6-10.4c0.2-5.7-4.7-10-10.8-10.1c-5.7,0-10.5,4.5-10.6,10.1
	C161.8,258.9,166.6,263.7,172.7,263.5z"/>
<path fill="#BC9C22" d="M141.8,235.4c5.5,2.6,11.1,5.2,16.6,7.9c1.3,0.6,2.4,0.7,3.7,0c2.4-1.4,4.9-2.7,7.3-4c1-0.6,1.8-1.3,1.8-2.5
	c0.6-0.3,0.3-0.9,0.5-1.3c0,0,0,0,0,0c1-2.1,1.7-4.3,2.2-6.6c0.5-0.3,0.4-0.9,0.4-1.3c0.5-0.3,0.4-0.9,0.4-1.3
	c0.6-0.4,0.3-1.2,0.6-1.7c0,0,0,0,0,0c0.6-0.8,0.7-1.8,0.8-2.7c1-1.3,0.9-3,1.7-4.4c4.5,1.7,8.8,1.8,12.5-1.8c1.2-0.7,1.6-1.9,2.1-3
	c2.8-6.1-0.8-13.7-7.5-14.8c-5.1-1.5-10.8,1.7-12.4,6.9c-0.9,3.1-0.4,5.9,0.9,8.7c-2.7,1.3-5.4,2.6-8,3.9c-5,2.4-10,4.7-14.8,7.4
	c-0.4,0.1-0.8,0.1-1,0.5c-2.7,1.1-5.3,2.4-7.7,4c-1.5-2.1-3-4.3-5.5-5.5c-5.5-2.8-12.4-0.5-14.7,4.9c-2.5,6.1,0.3,12.5,6.5,14.5
	C134,245.1,139.2,242.2,141.8,235.4c0.2-1.7,0.1-3.3-0.3-5C141.8,232.1,141.9,233.8,141.8,235.4z"/>
</svg>
