<svg xmlns="http://www.w3.org/2000/svg" viewBox="0 0 800 500" fill="none">
  <defs>
    <linearGradient id="bg2" x1="0" y1="0" x2="800" y2="500" gradientUnits="userSpaceOnUse">
      <stop offset="0" stop-color="#f8fafc"/>
      <stop offset="1" stop-color="#e2e8f0"/>
    </linearGradient>
    <linearGradient id="hdr2" x1="0" y1="0" x2="800" y2="0" gradientUnits="userSpaceOnUse">
      <stop offset="0" stop-color="#1e293b"/>
      <stop offset="1" stop-color="#334155"/>
    </linearGradient>
  </defs>
  <rect width="800" height="500" rx="12" fill="url(#bg2)"/>
  <rect width="800" height="56" rx="12" fill="url(#hdr2)"/>
  <rect y="12" width="800" height="44" fill="url(#hdr2)"/>
  <circle cx="40" cy="28" r="12" fill="#3b82f6" opacity="0.8"/>
  <text x="60" y="33" font-family="system-ui,sans-serif" font-size="16" font-weight="700" fill="white">Insurons</text>
  <!-- Title -->
  <text x="400" y="95" font-family="system-ui,sans-serif" font-size="20" font-weight="700" fill="#1e293b" text-anchor="middle">Your Personalized Quotes</text>
  <text x="400" y="115" font-family="system-ui,sans-serif" font-size="12" fill="#64748b" text-anchor="middle">3 carriers matched • Auto Insurance • 90210</text>
  <!-- Quote cards -->
  <!-- Card 1 -->
  <rect x="40" y="135" width="230" height="200" rx="14" fill="white" stroke="#e2e8f0" stroke-width="1"/>
  <rect x="40" y="135" width="230" height="4" rx="2" fill="#22c55e"/>
  <circle cx="75" cy="175" r="18" fill="#dcfce7"/>
  <text x="75" y="180" font-family="system-ui,sans-serif" font-size="11" font-weight="700" fill="#16a34a" text-anchor="middle">SF</text>
  <text x="105" y="170" font-family="system-ui,sans-serif" font-size="14" font-weight="700" fill="#1e293b">State Farm</text>
  <text x="105" y="185" font-family="system-ui,sans-serif" font-size="10" fill="#94a3b8">A++ AM Best</text>
  <rect x="200" y="162" width="55" height="20" rx="10" fill="#dcfce7"/>
  <text x="227" y="176" font-family="system-ui,sans-serif" font-size="9" font-weight="600" fill="#16a34a" text-anchor="middle">Best Value</text>
  <text x="155" y="222" font-family="system-ui,sans-serif" font-size="28" font-weight="800" fill="#1e293b" text-anchor="middle">$127</text>
  <text x="155" y="240" font-family="system-ui,sans-serif" font-size="11" fill="#64748b" text-anchor="middle">/month</text>
  <rect x="60" y="258" width="190" height="10" rx="5" fill="#f1f5f9"/>
  <rect x="60" y="258" width="175" height="10" rx="5" fill="#22c55e" opacity="0.3"/>
  <text x="155" y="285" font-family="system-ui,sans-serif" font-size="10" fill="#64748b" text-anchor="middle">Coverage Score: 92/100</text>
  <rect x="60" y="300" width="190" height="28" rx="8" fill="#2563eb"/>
  <text x="155" y="319" font-family="system-ui,sans-serif" font-size="11" font-weight="600" fill="white" text-anchor="middle">Select This Quote</text>
  <!-- Card 2 -->
  <rect x="285" y="135" width="230" height="200" rx="14" fill="white" stroke="#e2e8f0" stroke-width="1"/>
  <rect x="285" y="135" width="230" height="4" rx="2" fill="#3b82f6"/>
  <circle cx="320" cy="175" r="18" fill="#dbeafe"/>
  <text x="320" y="180" font-family="system-ui,sans-serif" font-size="11" font-weight="700" fill="#2563eb" text-anchor="middle">PG</text>
  <text x="350" y="170" font-family="system-ui,sans-serif" font-size="14" font-weight="700" fill="#1e293b">Progressive</text>
  <text x="350" y="185" font-family="system-ui,sans-serif" font-size="10" fill="#94a3b8">A+ AM Best</text>
  <text x="400" y="222" font-family="system-ui,sans-serif" font-size="28" font-weight="800" fill="#1e293b" text-anchor="middle">$143</text>
  <text x="400" y="240" font-family="system-ui,sans-serif" font-size="11" fill="#64748b" text-anchor="middle">/month</text>
  <rect x="305" y="258" width="190" height="10" rx="5" fill="#f1f5f9"/>
  <rect x="305" y="258" width="160" height="10" rx="5" fill="#3b82f6" opacity="0.3"/>
  <text x="400" y="285" font-family="system-ui,sans-serif" font-size="10" fill="#64748b" text-anchor="middle">Coverage Score: 88/100</text>
  <rect x="305" y="300" width="190" height="28" rx="8" fill="white" stroke="#2563eb" stroke-width="1.5"/>
  <text x="400" y="319" font-family="system-ui,sans-serif" font-size="11" font-weight="600" fill="#2563eb" text-anchor="middle">Select This Quote</text>
  <!-- Card 3 -->
  <rect x="530" y="135" width="230" height="200" rx="14" fill="white" stroke="#e2e8f0" stroke-width="1"/>
  <rect x="530" y="135" width="230" height="4" rx="2" fill="#f59e0b"/>
  <circle cx="565" cy="175" r="18" fill="#fef3c7"/>
  <text x="565" y="180" font-family="system-ui,sans-serif" font-size="11" font-weight="700" fill="#d97706" text-anchor="middle">AL</text>
  <text x="595" y="170" font-family="system-ui,sans-serif" font-size="14" font-weight="700" fill="#1e293b">Allstate</text>
  <text x="595" y="185" font-family="system-ui,sans-serif" font-size="10" fill="#94a3b8">A+ AM Best</text>
  <text x="645" y="222" font-family="system-ui,sans-serif" font-size="28" font-weight="800" fill="#1e293b" text-anchor="middle">$159</text>
  <text x="645" y="240" font-family="system-ui,sans-serif" font-size="11" fill="#64748b" text-anchor="middle">/month</text>
  <rect x="550" y="258" width="190" height="10" rx="5" fill="#f1f5f9"/>
  <rect x="550" y="258" width="150" height="10" rx="5" fill="#f59e0b" opacity="0.3"/>
  <text x="645" y="285" font-family="system-ui,sans-serif" font-size="10" fill="#64748b" text-anchor="middle">Coverage Score: 85/100</text>
  <rect x="550" y="300" width="190" height="28" rx="8" fill="white" stroke="#2563eb" stroke-width="1.5"/>
  <text x="645" y="319" font-family="system-ui,sans-serif" font-size="11" font-weight="600" fill="#2563eb" text-anchor="middle">Select This Quote</text>
  <!-- Bottom section -->
  <rect x="40" y="355" width="720" height="120" rx="14" fill="white" stroke="#e2e8f0" stroke-width="1"/>
  <text x="80" y="385" font-family="system-ui,sans-serif" font-size="14" font-weight="700" fill="#1e293b">Quote Comparison</text>
  <rect x="80" y="400" width="640" height="1" fill="#e2e8f0"/>
  <text x="80" y="425" font-family="system-ui,sans-serif" font-size="11" fill="#64748b">Monthly Premium</text>
  <text x="80" y="445" font-family="system-ui,sans-serif" font-size="11" fill="#64748b">Annual Cost</text>
  <text x="80" y="465" font-family="system-ui,sans-serif" font-size="11" fill="#64748b">Deductible</text>
  <text x="350" y="425" font-family="system-ui,sans-serif" font-size="11" font-weight="600" fill="#16a34a">$127</text>
  <text x="350" y="445" font-family="system-ui,sans-serif" font-size="11" font-weight="600" fill="#16a34a">$1,524</text>
  <text x="350" y="465" font-family="system-ui,sans-serif" font-size="11" fill="#1e293b">$500</text>
  <text x="500" y="425" font-family="system-ui,sans-serif" font-size="11" fill="#1e293b">$143</text>
  <text x="500" y="445" font-family="system-ui,sans-serif" font-size="11" fill="#1e293b">$1,716</text>
  <text x="500" y="465" font-family="system-ui,sans-serif" font-size="11" fill="#1e293b">$500</text>
  <text x="650" y="425" font-family="system-ui,sans-serif" font-size="11" fill="#1e293b">$159</text>
  <text x="650" y="445" font-family="system-ui,sans-serif" font-size="11" fill="#1e293b">$1,908</text>
  <text x="650" y="465" font-family="system-ui,sans-serif" font-size="11" fill="#1e293b">$1,000</text>
</svg>
