<svg xmlns="http://www.w3.org/2000/svg" viewBox="0 0 800 500" fill="none">
  <defs>
    <linearGradient id="bg3" x1="0" y1="0" x2="800" y2="500" gradientUnits="userSpaceOnUse">
      <stop offset="0" stop-color="#f8fafc"/>
      <stop offset="1" stop-color="#e2e8f0"/>
    </linearGradient>
  </defs>
  <rect width="800" height="500" rx="12" fill="url(#bg3)"/>
  <!-- Sidebar -->
  <rect width="200" height="500" rx="12" fill="#1e293b"/>
  <rect x="12" width="188" height="500" fill="#1e293b"/>
  <circle cx="40" cy="32" r="14" fill="#3b82f6" opacity="0.8"/>
  <text x="62" y="37" font-family="system-ui,sans-serif" font-size="14" font-weight="700" fill="white">Insurons</text>
  <rect x="16" y="70" width="168" height="36" rx="8" fill="#334155"/>
  <text x="48" y="93" font-family="system-ui,sans-serif" font-size="12" font-weight="600" fill="white">Dashboard</text>
  <circle cx="32" cy="88" r="4" fill="#3b82f6"/>
  <text x="48" y="130" font-family="system-ui,sans-serif" font-size="12" fill="#94a3b8">Leads</text>
  <text x="48" y="158" font-family="system-ui,sans-serif" font-size="12" fill="#94a3b8">Pipeline</text>
  <text x="48" y="186" font-family="system-ui,sans-serif" font-size="12" fill="#94a3b8">Quotes</text>
  <text x="48" y="214" font-family="system-ui,sans-serif" font-size="12" fill="#94a3b8">Messages</text>
  <text x="48" y="242" font-family="system-ui,sans-serif" font-size="12" fill="#94a3b8">Calendar</text>
  <text x="48" y="270" font-family="system-ui,sans-serif" font-size="12" fill="#94a3b8">Marketplace</text>
  <text x="48" y="310" font-family="system-ui,sans-serif" font-size="10" fill="#475569">AGENCY</text>
  <text x="48" y="335" font-family="system-ui,sans-serif" font-size="12" fill="#94a3b8">Team</text>
  <text x="48" y="363" font-family="system-ui,sans-serif" font-size="12" fill="#94a3b8">Routing Rules</text>
  <text x="48" y="391" font-family="system-ui,sans-serif" font-size="12" fill="#94a3b8">Settings</text>
  <!-- Top bar -->
  <rect x="200" y="0" width="600" height="56" fill="white" stroke="#e2e8f0" stroke-width="1"/>
  <text x="230" y="34" font-family="system-ui,sans-serif" font-size="18" font-weight="700" fill="#1e293b">Agent Dashboard</text>
  <circle cx="740" cy="28" r="16" fill="#eff6ff"/>
  <text x="740" y="33" font-family="system-ui,sans-serif" font-size="11" font-weight="700" fill="#2563eb" text-anchor="middle">JD</text>
  <!-- Stat cards row -->
  <rect x="220" y="75" width="135" height="85" rx="12" fill="white" stroke="#e2e8f0" stroke-width="1"/>
  <text x="236" y="98" font-family="system-ui,sans-serif" font-size="10" fill="#64748b">Active Leads</text>
  <text x="236" y="130" font-family="system-ui,sans-serif" font-size="26" font-weight="800" fill="#1e293b">127</text>
  <text x="236" y="148" font-family="system-ui,sans-serif" font-size="10" fill="#22c55e">↑ 12% this month</text>
  <rect x="365" y="75" width="135" height="85" rx="12" fill="white" stroke="#e2e8f0" stroke-width="1"/>
  <text x="381" y="98" font-family="system-ui,sans-serif" font-size="10" fill="#64748b">Policies Bound</text>
  <text x="381" y="130" font-family="system-ui,sans-serif" font-size="26" font-weight="800" fill="#1e293b">43</text>
  <text x="381" y="148" font-family="system-ui,sans-serif" font-size="10" fill="#22c55e">↑ 8% this month</text>
  <rect x="510" y="75" width="135" height="85" rx="12" fill="white" stroke="#e2e8f0" stroke-width="1"/>
  <text x="526" y="98" font-family="system-ui,sans-serif" font-size="10" fill="#64748b">Revenue</text>
  <text x="526" y="130" font-family="system-ui,sans-serif" font-size="26" font-weight="800" fill="#1e293b">$52K</text>
  <text x="526" y="148" font-family="system-ui,sans-serif" font-size="10" fill="#22c55e">↑ 15% this month</text>
  <rect x="655" y="75" width="125" height="85" rx="12" fill="white" stroke="#e2e8f0" stroke-width="1"/>
  <text x="671" y="98" font-family="system-ui,sans-serif" font-size="10" fill="#64748b">Conversion</text>
  <text x="671" y="130" font-family="system-ui,sans-serif" font-size="26" font-weight="800" fill="#1e293b">34%</text>
  <text x="671" y="148" font-family="system-ui,sans-serif" font-size="10" fill="#f59e0b">→ Same as last</text>
  <!-- Chart area -->
  <rect x="220" y="175" width="370" height="190" rx="12" fill="white" stroke="#e2e8f0" stroke-width="1"/>
  <text x="240" y="200" font-family="system-ui,sans-serif" font-size="13" font-weight="700" fill="#1e293b">Lead Pipeline</text>
  <!-- Simple bar chart -->
  <rect x="260" y="320" width="40" height="30" rx="4" fill="#dbeafe"/>
  <rect x="310" y="290" width="40" height="60" rx="4" fill="#dbeafe"/>
  <rect x="360" y="260" width="40" height="90" rx="4" fill="#3b82f6"/>
  <rect x="410" y="280" width="40" height="70" rx="4" fill="#dbeafe"/>
  <rect x="460" y="300" width="40" height="50" rx="4" fill="#dbeafe"/>
  <rect x="510" y="270" width="40" height="80" rx="4" fill="#dbeafe"/>
  <text x="280" y="345" font-family="system-ui,sans-serif" font-size="9" fill="#94a3b8" text-anchor="middle">Jan</text>
  <text x="330" y="345" font-family="system-ui,sans-serif" font-size="9" fill="#94a3b8" text-anchor="middle">Feb</text>
  <text x="380" y="345" font-family="system-ui,sans-serif" font-size="9" fill="#94a3b8" text-anchor="middle">Mar</text>
  <text x="430" y="345" font-family="system-ui,sans-serif" font-size="9" fill="#94a3b8" text-anchor="middle">Apr</text>
  <text x="480" y="345" font-family="system-ui,sans-serif" font-size="9" fill="#94a3b8" text-anchor="middle">May</text>
  <text x="530" y="345" font-family="system-ui,sans-serif" font-size="9" fill="#94a3b8" text-anchor="middle">Jun</text>
  <!-- Recent activity -->
  <rect x="600" y="175" width="180" height="190" rx="12" fill="white" stroke="#e2e8f0" stroke-width="1"/>
  <text x="618" y="200" font-family="system-ui,sans-serif" font-size="13" font-weight="700" fill="#1e293b">Activity</text>
  <circle cx="630" cy="225" r="4" fill="#22c55e"/>
  <text x="642" y="229" font-family="system-ui,sans-serif" font-size="10" fill="#475569">New lead: John D.</text>
  <circle cx="630" cy="250" r="4" fill="#3b82f6"/>
  <text x="642" y="254" font-family="system-ui,sans-serif" font-size="10" fill="#475569">Quote sent: Sarah M.</text>
  <circle cx="630" cy="275" r="4" fill="#f59e0b"/>
  <text x="642" y="279" font-family="system-ui,sans-serif" font-size="10" fill="#475569">Follow-up due: Tom L.</text>
  <circle cx="630" cy="300" r="4" fill="#22c55e"/>
  <text x="642" y="304" font-family="system-ui,sans-serif" font-size="10" fill="#475569">Policy bound: Amy R.</text>
  <circle cx="630" cy="325" r="4" fill="#8b5cf6"/>
  <text x="642" y="329" font-family="system-ui,sans-serif" font-size="10" fill="#475569">Meeting: 3:00 PM</text>
  <!-- Bottom section -->
  <rect x="220" y="380" width="560" height="105" rx="12" fill="white" stroke="#e2e8f0" stroke-width="1"/>
  <text x="240" y="405" font-family="system-ui,sans-serif" font-size="13" font-weight="700" fill="#1e293b">Recent Leads</text>
  <text x="240" y="435" font-family="system-ui,sans-serif" font-size="11" fill="#475569">John Doe</text>
  <text x="400" y="435" font-family="system-ui,sans-serif" font-size="11" fill="#64748b">Auto Insurance</text>
  <text x="560" y="435" font-family="system-ui,sans-serif" font-size="11" fill="#64748b">$250K Coverage</text>
  <rect x="680" y="423" width="60" height="20" rx="10" fill="#dcfce7"/>
  <text x="710" y="437" font-family="system-ui,sans-serif" font-size="9" font-weight="600" fill="#16a34a" text-anchor="middle">Hot</text>
  <rect x="240" y="448" width="520" height="1" fill="#f1f5f9"/>
  <text x="240" y="468" font-family="system-ui,sans-serif" font-size="11" fill="#475569">Sarah Miller</text>
  <text x="400" y="468" font-family="system-ui,sans-serif" font-size="11" fill="#64748b">Home Insurance</text>
  <text x="560" y="468" font-family="system-ui,sans-serif" font-size="11" fill="#64748b">$500K Coverage</text>
  <rect x="680" y="456" width="60" height="20" rx="10" fill="#fef3c7"/>
  <text x="710" y="470" font-family="system-ui,sans-serif" font-size="9" font-weight="600" fill="#d97706" text-anchor="middle">Warm</text>
</svg>
