<svg xmlns="http://www.w3.org/2000/svg" viewBox="0 0 800 500" fill="none">
  <defs>
    <linearGradient id="bg6" x1="0" y1="0" x2="800" y2="500" gradientUnits="userSpaceOnUse">
      <stop offset="0" stop-color="#f8fafc"/>
      <stop offset="1" stop-color="#e2e8f0"/>
    </linearGradient>
  </defs>
  <rect width="800" height="500" rx="12" fill="url(#bg6)"/>
  <!-- Sidebar -->
  <rect width="200" height="500" rx="12" fill="#1e293b"/>
  <rect x="12" width="188" height="500" fill="#1e293b"/>
  <circle cx="40" cy="32" r="14" fill="#ef4444" opacity="0.8"/>
  <text x="62" y="37" font-family="system-ui,sans-serif" font-size="14" font-weight="700" fill="white">Admin</text>
  <rect x="16" y="70" width="168" height="36" rx="8" fill="#334155"/>
  <text x="48" y="93" font-family="system-ui,sans-serif" font-size="12" font-weight="600" fill="white">Overview</text>
  <circle cx="32" cy="88" r="4" fill="#ef4444"/>
  <text x="48" y="130" font-family="system-ui,sans-serif" font-size="12" fill="#94a3b8">Users</text>
  <text x="48" y="158" font-family="system-ui,sans-serif" font-size="12" fill="#94a3b8">Carriers</text>
  <text x="48" y="186" font-family="system-ui,sans-serif" font-size="12" fill="#94a3b8">Rate Tables</text>
  <text x="48" y="214" font-family="system-ui,sans-serif" font-size="12" fill="#94a3b8">Subscriptions</text>
  <text x="48" y="242" font-family="system-ui,sans-serif" font-size="12" fill="#94a3b8">Revenue</text>
  <text x="48" y="270" font-family="system-ui,sans-serif" font-size="12" fill="#94a3b8">Analytics</text>
  <text x="48" y="298" font-family="system-ui,sans-serif" font-size="12" fill="#94a3b8">Security</text>
  <!-- Top bar -->
  <rect x="200" y="0" width="600" height="56" fill="white" stroke="#e2e8f0" stroke-width="1"/>
  <text x="230" y="34" font-family="system-ui,sans-serif" font-size="18" font-weight="700" fill="#1e293b">Platform Overview</text>
  <!-- Stats row -->
  <rect x="220" y="75" width="130" height="80" rx="12" fill="white" stroke="#e2e8f0" stroke-width="1"/>
  <text x="236" y="96" font-family="system-ui,sans-serif" font-size="10" fill="#64748b">Total Users</text>
  <text x="236" y="126" font-family="system-ui,sans-serif" font-size="24" font-weight="800" fill="#1e293b">2,847</text>
  <text x="236" y="144" font-family="system-ui,sans-serif" font-size="10" fill="#22c55e">↑ 23% growth</text>

  <rect x="358" y="75" width="130" height="80" rx="12" fill="white" stroke="#e2e8f0" stroke-width="1"/>
  <text x="374" y="96" font-family="system-ui,sans-serif" font-size="10" fill="#64748b">Active Agents</text>
  <text x="374" y="126" font-family="system-ui,sans-serif" font-size="24" font-weight="800" fill="#1e293b">342</text>
  <text x="374" y="144" font-family="system-ui,sans-serif" font-size="10" fill="#22c55e">↑ 18% growth</text>

  <rect x="496" y="75" width="130" height="80" rx="12" fill="white" stroke="#e2e8f0" stroke-width="1"/>
  <text x="512" y="96" font-family="system-ui,sans-serif" font-size="10" fill="#64748b">MRR</text>
  <text x="512" y="126" font-family="system-ui,sans-serif" font-size="24" font-weight="800" fill="#1e293b">$48K</text>
  <text x="512" y="144" font-family="system-ui,sans-serif" font-size="10" fill="#22c55e">↑ 31% growth</text>

  <rect x="634" y="75" width="145" height="80" rx="12" fill="white" stroke="#e2e8f0" stroke-width="1"/>
  <text x="650" y="96" font-family="system-ui,sans-serif" font-size="10" fill="#64748b">Marketplace Vol.</text>
  <text x="650" y="126" font-family="system-ui,sans-serif" font-size="24" font-weight="800" fill="#1e293b">$127K</text>
  <text x="650" y="144" font-family="system-ui,sans-serif" font-size="10" fill="#22c55e">↑ 42% growth</text>

  <!-- Revenue chart -->
  <rect x="220" y="170" width="370" height="180" rx="12" fill="white" stroke="#e2e8f0" stroke-width="1"/>
  <text x="240" y="195" font-family="system-ui,sans-serif" font-size="13" font-weight="700" fill="#1e293b">Revenue Growth</text>
  <!-- Area chart simulation -->
  <polygon points="250,330 290,310 330,295 370,280 410,260 450,240 490,235 530,220 570,210" fill="none" stroke="#3b82f6" stroke-width="2"/>
  <polygon points="250,330 290,310 330,295 370,280 410,260 450,240 490,235 530,220 570,210 570,330" fill="#3b82f6" opacity="0.08"/>
  <text x="250" y="345" font-family="system-ui,sans-serif" font-size="8" fill="#94a3b8">Sep</text>
  <text x="330" y="345" font-family="system-ui,sans-serif" font-size="8" fill="#94a3b8">Oct</text>
  <text x="410" y="345" font-family="system-ui,sans-serif" font-size="8" fill="#94a3b8">Nov</text>
  <text x="490" y="345" font-family="system-ui,sans-serif" font-size="8" fill="#94a3b8">Dec</text>
  <text x="560" y="345" font-family="system-ui,sans-serif" font-size="8" fill="#94a3b8">Jan</text>

  <!-- Carriers panel -->
  <rect x="600" y="170" width="180" height="180" rx="12" fill="white" stroke="#e2e8f0" stroke-width="1"/>
  <text x="618" y="195" font-family="system-ui,sans-serif" font-size="13" font-weight="700" fill="#1e293b">Top Carriers</text>
  <text x="618" y="225" font-family="system-ui,sans-serif" font-size="10" fill="#475569">State Farm</text>
  <text x="750" y="225" font-family="system-ui,sans-serif" font-size="10" font-weight="600" fill="#1e293b" text-anchor="end">342 quotes</text>
  <text x="618" y="250" font-family="system-ui,sans-serif" font-size="10" fill="#475569">Progressive</text>
  <text x="750" y="250" font-family="system-ui,sans-serif" font-size="10" font-weight="600" fill="#1e293b" text-anchor="end">287 quotes</text>
  <text x="618" y="275" font-family="system-ui,sans-serif" font-size="10" fill="#475569">Allstate</text>
  <text x="750" y="275" font-family="system-ui,sans-serif" font-size="10" font-weight="600" fill="#1e293b" text-anchor="end">234 quotes</text>
  <text x="618" y="300" font-family="system-ui,sans-serif" font-size="10" fill="#475569">GEICO</text>
  <text x="750" y="300" font-family="system-ui,sans-serif" font-size="10" font-weight="600" fill="#1e293b" text-anchor="end">198 quotes</text>
  <text x="618" y="325" font-family="system-ui,sans-serif" font-size="10" fill="#475569">USAA</text>
  <text x="750" y="325" font-family="system-ui,sans-serif" font-size="10" font-weight="600" fill="#1e293b" text-anchor="end">156 quotes</text>

  <!-- Recent users -->
  <rect x="220" y="365" width="560" height="120" rx="12" fill="white" stroke="#e2e8f0" stroke-width="1"/>
  <text x="240" y="390" font-family="system-ui,sans-serif" font-size="13" font-weight="700" fill="#1e293b">Recent Registrations</text>
  <text x="240" y="418" font-family="system-ui,sans-serif" font-size="11" fill="#475569">Apex Insurance Group</text>
  <text x="450" y="418" font-family="system-ui,sans-serif" font-size="11" fill="#64748b">Agency • 5 agents</text>
  <rect x="680" y="406" width="75" height="20" rx="10" fill="#dcfce7"/>
  <text x="717" y="420" font-family="system-ui,sans-serif" font-size="9" font-weight="600" fill="#16a34a" text-anchor="middle">Enterprise</text>
  <rect x="240" y="430" width="520" height="1" fill="#f1f5f9"/>
  <text x="240" y="450" font-family="system-ui,sans-serif" font-size="11" fill="#475569">John Martinez</text>
  <text x="450" y="450" font-family="system-ui,sans-serif" font-size="11" fill="#64748b">Agent • Solo</text>
  <rect x="680" y="438" width="75" height="20" rx="10" fill="#dbeafe"/>
  <text x="717" y="452" font-family="system-ui,sans-serif" font-size="9" font-weight="600" fill="#2563eb" text-anchor="middle">Agent Pro</text>
  <rect x="240" y="462" width="520" height="1" fill="#f1f5f9"/>
  <text x="240" y="478" font-family="system-ui,sans-serif" font-size="11" fill="#475569">Sarah Johnson</text>
  <text x="450" y="478" font-family="system-ui,sans-serif" font-size="11" fill="#64748b">Consumer</text>
  <rect x="680" y="466" width="75" height="20" rx="10" fill="#f1f5f9"/>
  <text x="717" y="480" font-family="system-ui,sans-serif" font-size="9" font-weight="600" fill="#64748b" text-anchor="middle">Free</text>
</svg>
